<?xml version="1.0" encoding="iso-8859-1"?>
<!-- Generator: Adobe Illustrator 18.1.1, SVG Export Plug-In . SVG Version: 6.00 Build 0)  -->
<svg xmlns="http://www.w3.org/2000/svg" xmlns:xlink="http://www.w3.org/1999/xlink" version="1.1" id="Capa_1" x="0px" y="0px" viewBox="0 0 274.39 274.39" style="enable-background:new 0 0 274.39 274.39;" xml:space="preserve" width="512px" height="512px">
<g>
	<path d="M214.84,178.641c-13.386,0-25.498,5.537-34.195,14.424l-75.146-43.866   c1.24-4.242,1.931-8.702,1.931-13.337c0-4.417-0.647-8.675-1.773-12.738l74.58-42.256c8.724,9.149,20.995,14.881,34.603,14.881   c26.401,0,47.875-21.473,47.875-47.88C262.715,21.468,241.242,0,214.84,0s-47.88,21.473-47.88,47.869   c0,4.417,0.647,8.675,1.773,12.744l-74.575,42.256C85.434,93.71,73.164,87.982,59.55,87.982c-26.401,0-47.875,21.473-47.875,47.88   c0,26.396,21.473,47.869,47.875,47.869c13.391,0,25.498-5.537,34.195-14.424l75.146,43.866c-1.235,4.237-1.931,8.708-1.931,13.337   c0,26.401,21.479,47.88,47.88,47.88s47.875-21.473,47.875-47.88C262.715,200.114,241.242,178.641,214.84,178.641z M190.261,47.875   c0-13.554,11.025-24.579,24.585-24.579c13.56,0,24.585,11.025,24.585,24.579c0,13.56-11.025,24.59-24.585,24.59   c-4.797,0-9.241-1.43-13.027-3.824c-6.777-4.259-11.324-11.699-11.504-20.25C190.31,48.217,190.261,48.049,190.261,47.875z    M59.55,160.447c-13.549,0-24.585-11.02-24.585-24.579s11.03-24.59,24.585-24.59c4.797,0,9.241,1.436,13.027,3.824   c6.777,4.259,11.324,11.705,11.504,20.25l-1.169,0.664l1.137,0.674c-0.288,8.523-4.917,15.92-11.759,20.097   C68.562,159.065,64.233,160.447,59.55,160.447z M214.84,251.1c-13.554,0-24.585-11.03-24.585-24.59c0-0.277,0.076-0.538,0.087-0.81   c0.288-8.534,4.911-15.926,11.759-20.103c3.731-2.279,8.05-3.66,12.738-3.66c13.554,0,24.585,11.03,24.585,24.579   C239.425,240.069,228.395,251.1,214.84,251.1z" fill="#FFFFFF"/>
</g>
<g>
</g>
<g>
</g>
<g>
</g>
<g>
</g>
<g>
</g>
<g>
</g>
<g>
</g>
<g>
</g>
<g>
</g>
<g>
</g>
<g>
</g>
<g>
</g>
<g>
</g>
<g>
</g>
<g>
</g>
</svg>
